# xmcd
#
# Track frame offsets: 
#        150
#        14928
#        30413
#        47212
#        57902
#        75042
#        90916
#        104553
#        117845
#        132302
#        148451
#        162481
#
# Disc length: 2348 seconds
#
# Revision: 0
# Processed by: cddbd v1.5.1PL0 Copyright (c) Steve Scherf et al.
# Submitted via: ExactAudioCopy v0.95a4
#
DISCID=a0092a0c
DTITLE=Clint Black - Drinkin' Songs and Other Logic
DYEAR=2005
DGENRE=Country
TTITLE0=Drinkin' Songs and Other Logic
TTITLE1=Heartaches
TTITLE2=Code Of The West
TTITLE3=Rainbow In The Rain
TTITLE4=Undercover Cowboy
TTITLE5=Go It Alone
TTITLE6=Too Much Rock
TTITLE7=A Big One
TTITLE8=I Don't Wanna Tell You
TTITLE9=Back Home In Heaven
TTITLE10=Thinkin' Of You
TTITLE11=Longnecks and Rednecks
EXTD=
EXTT0=
EXTT1=
EXTT2=
EXTT3=
EXTT4=
EXTT5=
EXTT6=
EXTT7=
EXTT8=
EXTT9=
EXTT10=
EXTT11=
PLAYORDER=
